HIERARCHY
ROOT Hips
{
 OFFSET 0.000000 0.000000 0.000000
 CHANNELS 6 Xposition Yposition Zposition Yrotation Xrotation Zrotation
 JOINT Chest
 {
  OFFSET 0.000000 9.585900 0.002600
  CHANNELS 3 Yrotation Xrotation Zrotation
  JOINT Chest2
  {
   OFFSET 0.000000 9.601200 -0.005300
   CHANNELS 3 Yrotation Xrotation Zrotation
   JOINT Chest3
   {
    OFFSET 0.000000 9.561800 0.000000
    CHANNELS 3 Yrotation Xrotation Zrotation
    JOINT Chest4
    {
     OFFSET 0.000000 9.552100 0.000000
     CHANNELS 3 Yrotation Xrotation Zrotation
     JOINT Neck
     {
      OFFSET 0.000000 14.453000 0.000000
      CHANNELS 3 Yrotation Xrotation Zrotation
      JOINT Head
      {
       OFFSET 0.000000 8.936500 -0.011300
       CHANNELS 3 Yrotation Xrotation Zrotation
       End Site
       {
        OFFSET 0.000000 17.073600 -0.006000
       }
      }
     }
     JOINT RightCollar
     {
      OFFSET -2.921100 9.558500 0.000000
      CHANNELS 3 Yrotation Xrotation Zrotation
      JOINT RightShoulder
      {
       OFFSET -13.519700 0.000000 0.000000
       CHANNELS 3 Yrotation Xrotation Zrotation
       JOINT RightElbow
       {
        OFFSET 0.000000 -29.696600 0.000000
        CHANNELS 3 Yrotation Xrotation Zrotation
        JOINT RightWrist
        {
         OFFSET 0.000000 -24.004700 0.000000
         CHANNELS 3 Yrotation Xrotation Zrotation
         End Site
         {
          OFFSET 0.000000 -17.728500 0.000000
         }
        }
       }
      }
     }
     JOINT LeftCollar
     {
      OFFSET 2.921100 9.558500 0.000000
      CHANNELS 3 Yrotation Xrotation Zrotation
      JOINT LeftShoulder
      {
       OFFSET 13.519700 0.000000 0.000000
       CHANNELS 3 Yrotation Xrotation Zrotation
       JOINT LeftElbow
       {
        OFFSET 0.000000 -29.696600 0.000000
        CHANNELS 3 Yrotation Xrotation Zrotation
        JOINT LeftWrist
        {
         OFFSET 0.000000 -24.004700 0.000000
         CHANNELS 3 Yrotation Xrotation Zrotation
         End Site
         {
          OFFSET 0.000000 -17.728500 0.000000
         }
        }
       }
      }
     }
    }
   }
  }
 }
 JOINT RightHip
 {
  OFFSET -7.771700 -0.012900 -0.001300
  CHANNELS 3 Yrotation Xrotation Zrotation
  JOINT RightKnee
  {
   OFFSET 0.000000 -40.869800 0.001200
   CHANNELS 3 Yrotation Xrotation Zrotation
   JOINT RightAnkle
   {
    OFFSET 0.000000 -39.717900 0.002100
    CHANNELS 3 Yrotation Xrotation Zrotation
    JOINT RightToe
    {
     OFFSET 0.000000 -4.965400 11.033500
     CHANNELS 3 Yrotation Xrotation Zrotation
     End Site
     {
      OFFSET 0.000000 -1.423100 5.872300
     }
    }
   }
  }
 }
 JOINT LeftHip
 {
  OFFSET 7.771700 -0.012900 -0.001300
  CHANNELS 3 Yrotation Xrotation Zrotation
  JOINT LeftKnee
  {
   OFFSET 0.000000 -40.869800 0.001200
   CHANNELS 3 Yrotation Xrotation Zrotation
   JOINT LeftAnkle
   {
    OFFSET 0.000000 -39.717900 0.002100
    CHANNELS 3 Yrotation Xrotation Zrotation
    JOINT LeftToe
    {
     OFFSET 0.000000 -4.965400 11.033500
     CHANNELS 3 Yrotation Xrotation Zrotation
     End Site
     {
      OFFSET 0.000000 -1.423100 5.872300
     }
    }
   }
  }
 }
}
MOTION
Frames: 6
Frame Time: 0.008333
-34.763245 46.793341 19.473985 176.855620 -30.710412 -3.030938 -0.212838 18.699278 1.597494 -0.051754 2.164597 0.202835 -0.095847 3.568435 0.320763 -0.208139 16.246959 1.504218 0.290300 17.825900 -1.086205 0.864754 -2.711148 -2.152714 0.540516 1.520650 -2.003657 6.371741 -6.243439 -15.480665 -53.008103 -61.455405 102.223921 -1.316520 6.105824 -21.533539 0.082660 0.067842 1.895993 -5.383962 -2.582370 13.040421 65.041682 -62.960543 -105.190906 2.390834 11.403666 15.499766 -2.419536 -56.285261 -6.966637 -144.004031 78.343328 -135.350542 -8.353084 -13.106013 -6.295076 -0.006712 -0.153301 0.040817 -2.190735 -58.007444 10.719455 -115.501445 81.451662 -119.314097 6.049302 -7.364088 5.140793 0.057564 0.128098 0.063136
-34.772067 46.787756 19.473986 176.867085 -30.718970 -3.021552 -0.214005 18.714191 1.597030 -0.051210 2.165165 0.203542 -0.096261 3.569951 0.323089 -0.204251 16.249985 1.511174 0.269877 17.817710 -1.093933 0.862420 -2.688447 -2.066528 0.525403 1.511173 -2.014773 6.386773 -6.225395 -15.459901 -53.020010 -61.476571 102.233393 -1.317077 6.101086 -21.543863 0.068057 0.058138 1.886789 -5.380752 -2.580965 13.043799 65.022092 -62.973813 -105.157049 2.383381 11.402760 15.482325 -2.401628 -56.278215 -6.990855 -143.964990 78.335063 -135.348402 -8.306309 -13.104069 -6.267701 -0.032137 -0.136992 0.030182 -2.150381 -58.004667 10.674869 -115.517681 81.453016 -119.322577 6.026439 -7.360925 5.140405 0.071689 0.129725 0.062818
-34.785858 46.780543 19.476006 176.885657 -30.707589 -2.981838 -0.234548 18.710972 1.560729 -0.050666 2.165240 0.204140 -0.079527 3.577544 0.336428 -0.194515 16.251256 1.521440 0.239767 17.809865 -1.089329 0.851005 -2.691086 -2.029966 0.504309 1.498883 -2.027008 6.385195 -6.215649 -15.440614 -53.002782 -61.482667 102.255632 -1.304963 6.092836 -21.593874 0.046025 0.055261 1.886876 -5.365250 -2.576122 13.056590 65.057430 -62.964784 -105.221829 2.378288 11.407592 15.482840 -2.311786 -56.296649 -7.110193 -144.018738 78.335213 -135.401261 -8.302768 -13.078034 -6.244507 -0.028688 -0.150002 0.008540 -2.072920 -58.021281 10.575679 -115.505878 81.471049 -119.311867 5.964720 -7.365912 5.134272 0.110084 0.152447 0.076929
-34.793018 46.774428 19.477272 176.882721 -30.703129 -2.966044 -0.224343 18.714125 1.561548 -0.056808 2.161378 0.198573 -0.071910 3.581629 0.343308 -0.190713 16.251241 1.526380 0.236227 17.807927 -1.076834 0.840192 -2.698638 -2.010513 0.528578 1.501953 -2.010854 6.360398 -6.210142 -15.444734 -52.995582 -61.499926 102.261238 -1.306522 6.088418 -21.592268 0.068462 0.072477 1.922301 -5.343096 -2.559438 13.069276 65.146579 -62.944751 -105.369032 2.383877 11.431674 15.516406 -2.244008 -56.309217 -7.176440 -144.089822 78.334448 -135.467437 -8.271547 -13.059070 -6.221785 -0.029148 -0.155904 -0.010016 -2.040622 -58.029170 10.546534 -115.507110 81.472695 -119.312884 5.951944 -7.364360 5.126690 0.113436 0.155534 0.081900
-34.800197 46.768596 19.478252 176.880125 -30.698045 -2.945796 -0.215211 18.715632 1.557406 -0.063132 2.158614 0.193703 -0.064820 3.585411 0.349614 -0.188795 16.252217 1.531295 0.235350 17.804022 -1.066601 0.827741 -2.709792 -1.992189 0.521134 1.496165 -2.016263 6.388647 -6.201991 -15.414193 -52.974631 -61.525853 102.235635 -1.310564 6.086146 -21.590091 0.071640 0.073544 1.931698 -5.329961 -2.548081 13.073834 65.119645 -62.948204 -105.342726 2.380798 11.403666 15.483842 -2.144182 -56.321716 -7.274740 -144.188962 78.334381 -135.547314 -8.233024 -13.035048 -6.203562 -0.054555 -0.165935 -0.024203 -2.007025 -58.036626 10.511776 -115.514934 81.476862 -119.321703 5.931097 -7.363307 5.122466 0.123882 0.158582 0.086611
-34.805989 46.763003 19.479448 176.889847 -30.690023 -2.935725 -0.214415 18.713763 1.558130 -0.050153 2.166061 0.205915 -0.086233 3.575648 0.332740 -0.179719 16.256230 1.541725 0.241230 17.801638 -1.046608 0.810952 -2.722013 -1.983360 0.514609 1.491237 -2.022535 6.389084 -6.203506 -15.411808 -52.965136 -61.529896 102.230329 -1.312266 6.089258 -21.554716 0.076605 0.071462 1.939107 -5.318873 -2.531769 13.075767 65.121773 -62.942569 -105.362160 2.373082 11.392058 15.475560 -2.089894 -56.332971 -7.332725 -144.224795 78.335044 -135.577119 -8.217862 -13.015729 -6.192865 -0.073878 -0.170957 -0.027360 -1.992197 -58.046152 10.486675 -115.527887 81.491604 -119.337779 5.905045 -7.360120 5.122273 0.128229 0.163281 0.088646
